<?xml version='1.0' encoding='UTF-8'?>
<!DOCTYPE svg PUBLIC "-//W3C//DTD SVG 1.1//EN" "http://www.w3.org/Graphics/SVG/1.1/DTD/svg11.dtd">
<!-- Generated by graphviz version 12.2.1 (20241206.2353)
 -->
<!-- Pages: 1 -->
<svg xmlns="http://www.w3.org/2000/svg" xmlns:xlink="http://www.w3.org/1999/xlink" width="689pt" height="749pt" viewBox="0.00 0.00 689.42 748.75">
  <style>
    @import url("https://fonts.googleapis.com/css?family=Roboto:400,400i,700,700i");
    </style>
  <g id="graph0" class="graph" transform="scale(1 1) rotate(0) translate(4 744.75)">
    <polygon fill="#eeeeee" stroke="none" points="-4,4 -4,-744.75 685.42,-744.75 685.42,4 -4,4"/>
    <!-- User -->
    <g id="node1" class="table-hover">
      <title>User</title>
      <g id="a_node1">
        <a xlink:href="http://User_details.html" xlink:title="&lt;TABLE&gt;">
          <polygon fill="#3f51b5" stroke="none" points="220,-713.5 220,-736.75 460.75,-736.75 460.75,-713.5 220,-713.5"/>
          <polygon fill="none" stroke="black" points="220,-713.5 220,-736.75 460.75,-736.75 460.75,-713.5 220,-713.5"/>
          <text text-anchor="start" x="326.88" y="-722.35" font-family="Roboto" font-size="12.00" fill="white">User</text>
          <polygon fill="#bbdefb" stroke="none" points="220,-690.25 220,-713.5 328.75,-713.5 328.75,-690.25 220,-690.25"/>
          <polygon fill="none" stroke="black" points="220,-690.25 220,-713.5 328.75,-713.5 328.75,-690.25 220,-690.25"/>
          <text text-anchor="start" x="269.12" y="-699.1" font-family="Roboto" font-size="12.00">id</text>
          <polygon fill="#bbdefb" stroke="none" points="328.75,-690.25 328.75,-713.5 460.75,-713.5 460.75,-690.25 328.75,-690.25"/>
          <polygon fill="none" stroke="black" points="328.75,-690.25 328.75,-713.5 460.75,-713.5 460.75,-690.25 328.75,-690.25"/>
          <text text-anchor="start" x="357.25" y="-699.1" font-family="Roboto" font-size="12.00">INTEGER (PK)</text>
          <polygon fill="#bbdefb" stroke="none" points="220,-667 220,-690.25 328.75,-690.25 328.75,-667 220,-667"/>
          <polygon fill="none" stroke="black" points="220,-667 220,-690.25 328.75,-690.25 328.75,-667 220,-667"/>
          <text text-anchor="start" x="244" y="-675.85" font-family="Roboto" font-size="12.00">first_name</text>
          <polygon fill="#bbdefb" stroke="none" points="328.75,-667 328.75,-690.25 460.75,-690.25 460.75,-667 328.75,-667"/>
          <polygon fill="none" stroke="black" points="328.75,-667 328.75,-690.25 460.75,-690.25 460.75,-667 328.75,-667"/>
          <text text-anchor="start" x="352.38" y="-675.85" font-family="Roboto" font-size="12.00">VARCHAR(30) ()</text>
          <polygon fill="#bbdefb" stroke="none" points="220,-643.75 220,-667 328.75,-667 328.75,-643.75 220,-643.75"/>
          <polygon fill="none" stroke="black" points="220,-643.75 220,-667 328.75,-667 328.75,-643.75 220,-643.75"/>
          <text text-anchor="start" x="236.12" y="-652.6" font-family="Roboto" font-size="12.00">middle_name</text>
          <polygon fill="#bbdefb" stroke="none" points="328.75,-643.75 328.75,-667 460.75,-667 460.75,-643.75 328.75,-643.75"/>
          <polygon fill="none" stroke="black" points="328.75,-643.75 328.75,-667 460.75,-667 460.75,-643.75 328.75,-643.75"/>
          <text text-anchor="start" x="352.38" y="-652.6" font-family="Roboto" font-size="12.00">VARCHAR(40) ()</text>
          <polygon fill="#bbdefb" stroke="none" points="220,-620.5 220,-643.75 328.75,-643.75 328.75,-620.5 220,-620.5"/>
          <polygon fill="none" stroke="black" points="220,-620.5 220,-643.75 328.75,-643.75 328.75,-620.5 220,-620.5"/>
          <text text-anchor="start" x="245.5" y="-629.35" font-family="Roboto" font-size="12.00">last_name</text>
          <polygon fill="#bbdefb" stroke="none" points="328.75,-620.5 328.75,-643.75 460.75,-643.75 460.75,-620.5 328.75,-620.5"/>
          <polygon fill="none" stroke="black" points="328.75,-620.5 328.75,-643.75 460.75,-643.75 460.75,-620.5 328.75,-620.5"/>
          <text text-anchor="start" x="352.38" y="-629.35" font-family="Roboto" font-size="12.00">VARCHAR(30) ()</text>
          <polygon fill="#bbdefb" stroke="none" points="220,-597.25 220,-620.5 328.75,-620.5 328.75,-597.25 220,-597.25"/>
          <polygon fill="none" stroke="black" points="220,-597.25 220,-620.5 328.75,-620.5 328.75,-597.25 220,-597.25"/>
          <text text-anchor="start" x="259" y="-606.1" font-family="Roboto" font-size="12.00">email</text>
          <polygon fill="#bbdefb" stroke="none" points="328.75,-597.25 328.75,-620.5 460.75,-620.5 460.75,-597.25 328.75,-597.25"/>
          <polygon fill="none" stroke="black" points="328.75,-597.25 328.75,-620.5 460.75,-620.5 460.75,-597.25 328.75,-597.25"/>
          <text text-anchor="start" x="331.75" y="-606.1" font-family="Roboto" font-size="12.00">VARCHAR(50) (Unique)</text>
          <polygon fill="#bbdefb" stroke="none" points="220,-574 220,-597.25 328.75,-597.25 328.75,-574 220,-574"/>
          <polygon fill="none" stroke="black" points="220,-574 220,-597.25 328.75,-597.25 328.75,-574 220,-574"/>
          <text text-anchor="start" x="223" y="-582.85" font-family="Roboto" font-size="12.00">password_hashed</text>
          <polygon fill="#bbdefb" stroke="none" points="328.75,-574 328.75,-597.25 460.75,-597.25 460.75,-574 328.75,-574"/>
          <polygon fill="none" stroke="black" points="328.75,-574 328.75,-597.25 460.75,-597.25 460.75,-574 328.75,-574"/>
          <text text-anchor="start" x="362.88" y="-582.85" font-family="Roboto" font-size="12.00">VARCHAR ()</text>
          <polygon fill="#bbdefb" stroke="none" points="220,-550.75 220,-574 328.75,-574 328.75,-550.75 220,-550.75"/>
          <polygon fill="none" stroke="black" points="220,-550.75 220,-574 328.75,-574 328.75,-550.75 220,-550.75"/>
          <text text-anchor="start" x="240.62" y="-559.6" font-family="Roboto" font-size="12.00">isu_number</text>
          <polygon fill="#bbdefb" stroke="none" points="328.75,-550.75 328.75,-574 460.75,-574 460.75,-550.75 328.75,-550.75"/>
          <polygon fill="none" stroke="black" points="328.75,-550.75 328.75,-574 460.75,-574 460.75,-550.75 328.75,-550.75"/>
          <text text-anchor="start" x="364.75" y="-559.6" font-family="Roboto" font-size="12.00">INTEGER ()</text>
          <polygon fill="#bbdefb" stroke="none" points="220,-527.5 220,-550.75 328.75,-550.75 328.75,-527.5 220,-527.5"/>
          <polygon fill="none" stroke="black" points="220,-527.5 220,-550.75 328.75,-550.75 328.75,-527.5 220,-527.5"/>
          <text text-anchor="start" x="238" y="-536.35" font-family="Roboto" font-size="12.00">tg_nickname</text>
          <polygon fill="#bbdefb" stroke="none" points="328.75,-527.5 328.75,-550.75 460.75,-550.75 460.75,-527.5 328.75,-527.5"/>
          <polygon fill="none" stroke="black" points="328.75,-527.5 328.75,-550.75 460.75,-550.75 460.75,-527.5 328.75,-527.5"/>
          <text text-anchor="start" x="352.38" y="-536.35" font-family="Roboto" font-size="12.00">VARCHAR(40) ()</text>
        </a>
      </g>
    </g>
    <!-- Resume -->
    <g id="node2" class="table-hover">
      <title>Resume</title>
      <g id="a_node2">
        <a xlink:href="http://Resume_details.html" xlink:title="&lt;TABLE&gt;">
          <polygon fill="#3f51b5" stroke="none" points="8,-446 8,-469.25 164.75,-469.25 164.75,-446 8,-446"/>
          <polygon fill="none" stroke="black" points="8,-446 8,-469.25 164.75,-469.25 164.75,-446 8,-446"/>
          <text text-anchor="start" x="63.5" y="-454.85" font-family="Roboto" font-size="12.00" fill="white">Resume</text>
          <polygon fill="#bbdefb" stroke="none" points="8,-422.75 8,-446 83.75,-446 83.75,-422.75 8,-422.75"/>
          <polygon fill="none" stroke="black" points="8,-422.75 8,-446 83.75,-446 83.75,-422.75 8,-422.75"/>
          <text text-anchor="start" x="40.62" y="-431.6" font-family="Roboto" font-size="12.00">id</text>
          <polygon fill="#bbdefb" stroke="none" points="83.75,-422.75 83.75,-446 164.75,-446 164.75,-422.75 83.75,-422.75"/>
          <polygon fill="none" stroke="black" points="83.75,-422.75 83.75,-446 164.75,-446 164.75,-422.75 83.75,-422.75"/>
          <text text-anchor="start" x="86.75" y="-431.6" font-family="Roboto" font-size="12.00">INTEGER (PK)</text>
          <polygon fill="#bbdefb" stroke="none" points="8,-399.5 8,-422.75 83.75,-422.75 83.75,-399.5 8,-399.5"/>
          <polygon fill="none" stroke="black" points="8,-399.5 8,-422.75 83.75,-422.75 83.75,-399.5 8,-399.5"/>
          <text text-anchor="start" x="25.25" y="-408.35" font-family="Roboto" font-size="12.00">user_id</text>
          <polygon fill="#bbdefb" stroke="none" points="83.75,-399.5 83.75,-422.75 164.75,-422.75 164.75,-399.5 83.75,-399.5"/>
          <polygon fill="none" stroke="black" points="83.75,-399.5 83.75,-422.75 164.75,-422.75 164.75,-399.5 83.75,-399.5"/>
          <text text-anchor="start" x="94.25" y="-408.35" font-family="Roboto" font-size="12.00">INTEGER ()</text>
          <polygon fill="#bbdefb" stroke="none" points="8,-376.25 8,-399.5 83.75,-399.5 83.75,-376.25 8,-376.25"/>
          <polygon fill="none" stroke="black" points="8,-376.25 8,-399.5 83.75,-399.5 83.75,-376.25 8,-376.25"/>
          <text text-anchor="start" x="25.62" y="-385.1" font-family="Roboto" font-size="12.00">header</text>
          <polygon fill="#bbdefb" stroke="none" points="83.75,-376.25 83.75,-399.5 164.75,-399.5 164.75,-376.25 83.75,-376.25"/>
          <polygon fill="none" stroke="black" points="83.75,-376.25 83.75,-399.5 164.75,-399.5 164.75,-376.25 83.75,-376.25"/>
          <text text-anchor="start" x="92.38" y="-385.1" font-family="Roboto" font-size="12.00">VARCHAR ()</text>
          <polygon fill="#bbdefb" stroke="none" points="8,-353 8,-376.25 83.75,-376.25 83.75,-353 8,-353"/>
          <polygon fill="none" stroke="black" points="8,-353 8,-376.25 83.75,-376.25 83.75,-353 8,-353"/>
          <text text-anchor="start" x="11" y="-361.85" font-family="Roboto" font-size="12.00">resume_text</text>
          <polygon fill="#bbdefb" stroke="none" points="83.75,-353 83.75,-376.25 164.75,-376.25 164.75,-353 83.75,-353"/>
          <polygon fill="none" stroke="black" points="83.75,-353 83.75,-376.25 164.75,-376.25 164.75,-353 83.75,-353"/>
          <text text-anchor="start" x="92.38" y="-361.85" font-family="Roboto" font-size="12.00">VARCHAR ()</text>
        </a>
      </g>
    </g>
    <!-- User&#45;&gt;Resume -->
    <g id="edge1" class="edge-hover edge-from-None edge-to-None">
      <title>User-&gt;Resume</title>
      <g id="a_edge1">
        <a xlink:title="Relation between User and Resume">
          <path fill="none" stroke="#1e88e5" stroke-dasharray="5,2" d="M212.1,-588.09C172.13,-568.73 131.52,-541.85 104.62,-505.5 99.88,-499.09 96.28,-491.78 93.56,-484.14"/>
          <polygon fill="#1e88e5" stroke="#1e88e5" points="96.93,-483.19 90.7,-474.62 90.22,-485.2 96.93,-483.19"/>
        </a>
      </g>
      <text text-anchor="middle" x="124.5" y="-496" font-family="Roboto" font-size="10.00">resumes</text>
    </g>
    <!-- Response -->
    <g id="node3" class="table-hover">
      <title>Response</title>
      <g id="a_node3">
        <a xlink:href="http://Response_details.html" xlink:title="&lt;TABLE&gt;">
          <polygon fill="#3f51b5" stroke="none" points="357.75,-446 357.75,-469.25 543,-469.25 543,-446 357.75,-446"/>
          <polygon fill="none" stroke="black" points="357.75,-446 357.75,-469.25 543,-469.25 543,-446 357.75,-446"/>
          <text text-anchor="start" x="422.62" y="-454.85" font-family="Roboto" font-size="12.00" fill="white">Response</text>
          <polygon fill="#bbdefb" stroke="none" points="357.75,-422.75 357.75,-446 445.5,-446 445.5,-422.75 357.75,-422.75"/>
          <polygon fill="none" stroke="black" points="357.75,-422.75 357.75,-446 445.5,-446 445.5,-422.75 357.75,-422.75"/>
          <text text-anchor="start" x="396.38" y="-431.6" font-family="Roboto" font-size="12.00">id</text>
          <polygon fill="#bbdefb" stroke="none" points="445.5,-422.75 445.5,-446 543,-446 543,-422.75 445.5,-422.75"/>
          <polygon fill="none" stroke="black" points="445.5,-422.75 445.5,-446 543,-446 543,-422.75 445.5,-422.75"/>
          <text text-anchor="start" x="456.75" y="-431.6" font-family="Roboto" font-size="12.00">INTEGER (PK)</text>
          <polygon fill="#bbdefb" stroke="none" points="357.75,-399.5 357.75,-422.75 445.5,-422.75 445.5,-399.5 357.75,-399.5"/>
          <polygon fill="none" stroke="black" points="357.75,-399.5 357.75,-422.75 445.5,-422.75 445.5,-399.5 357.75,-399.5"/>
          <text text-anchor="start" x="360.75" y="-408.35" font-family="Roboto" font-size="12.00">respondent_id</text>
          <polygon fill="#bbdefb" stroke="none" points="445.5,-399.5 445.5,-422.75 543,-422.75 543,-399.5 445.5,-399.5"/>
          <polygon fill="none" stroke="black" points="445.5,-399.5 445.5,-422.75 543,-422.75 543,-399.5 445.5,-399.5"/>
          <text text-anchor="start" x="464.25" y="-408.35" font-family="Roboto" font-size="12.00">INTEGER ()</text>
          <polygon fill="#bbdefb" stroke="none" points="357.75,-376.25 357.75,-399.5 445.5,-399.5 445.5,-376.25 357.75,-376.25"/>
          <polygon fill="none" stroke="black" points="357.75,-376.25 357.75,-399.5 445.5,-399.5 445.5,-376.25 357.75,-376.25"/>
          <text text-anchor="start" x="373.88" y="-385.1" font-family="Roboto" font-size="12.00">project_id</text>
          <polygon fill="#bbdefb" stroke="none" points="445.5,-376.25 445.5,-399.5 543,-399.5 543,-376.25 445.5,-376.25"/>
          <polygon fill="none" stroke="black" points="445.5,-376.25 445.5,-399.5 543,-399.5 543,-376.25 445.5,-376.25"/>
          <text text-anchor="start" x="464.25" y="-385.1" font-family="Roboto" font-size="12.00">INTEGER ()</text>
          <polygon fill="#bbdefb" stroke="none" points="357.75,-353 357.75,-376.25 445.5,-376.25 445.5,-353 357.75,-353"/>
          <polygon fill="none" stroke="black" points="357.75,-353 357.75,-376.25 445.5,-376.25 445.5,-353 357.75,-353"/>
          <text text-anchor="start" x="388.5" y="-361.85" font-family="Roboto" font-size="12.00">note</text>
          <polygon fill="#bbdefb" stroke="none" points="445.5,-353 445.5,-376.25 543,-376.25 543,-353 445.5,-353"/>
          <polygon fill="none" stroke="black" points="445.5,-353 445.5,-376.25 543,-376.25 543,-353 445.5,-353"/>
          <text text-anchor="start" x="448.5" y="-361.85" font-family="Roboto" font-size="12.00">VARCHAR(200) ()</text>
        </a>
      </g>
    </g>
    <!-- User&#45;&gt;Response -->
    <g id="edge2" class="edge-hover edge-from-None edge-to-None">
      <title>User-&gt;Response</title>
      <g id="a_edge2">
        <a xlink:title="Relation between User and Response">
          <path fill="none" stroke="#1e88e5" stroke-dasharray="5,2" d="M348.4,-523.59C351.54,-512.29 355.69,-501.29 361.12,-491.25 362.8,-488.16 364.64,-485.14 366.62,-482.18"/>
          <polygon fill="#1e88e5" stroke="#1e88e5" points="369.39,-484.32 372.49,-474.19 363.75,-480.17 369.39,-484.32"/>
        </a>
      </g>
      <text text-anchor="middle" x="384.75" y="-496" font-family="Roboto" font-size="10.00">responses</text>
    </g>
    <!-- Project -->
    <g id="node4" class="table-hover">
      <title>Project</title>
      <g id="a_node4">
        <a xlink:href="http://Project_details.html" xlink:title="&lt;TABLE&gt;">
          <polygon fill="#3f51b5" stroke="none" points="318.88,-271.5 318.88,-294.75 519.88,-294.75 519.88,-271.5 318.88,-271.5"/>
          <polygon fill="none" stroke="black" points="318.88,-271.5 318.88,-294.75 519.88,-294.75 519.88,-271.5 318.88,-271.5"/>
          <text text-anchor="start" x="399.5" y="-280.35" font-family="Roboto" font-size="12.00" fill="white">Project</text>
          <polygon fill="#bbdefb" stroke="none" points="318.88,-248.25 318.88,-271.5 422.38,-271.5 422.38,-248.25 318.88,-248.25"/>
          <polygon fill="none" stroke="black" points="318.88,-248.25 318.88,-271.5 422.38,-271.5 422.38,-248.25 318.88,-248.25"/>
          <text text-anchor="start" x="365.38" y="-257.1" font-family="Roboto" font-size="12.00">id</text>
          <polygon fill="#bbdefb" stroke="none" points="422.38,-248.25 422.38,-271.5 519.88,-271.5 519.88,-248.25 422.38,-248.25"/>
          <polygon fill="none" stroke="black" points="422.38,-248.25 422.38,-271.5 519.88,-271.5 519.88,-248.25 422.38,-248.25"/>
          <text text-anchor="start" x="433.62" y="-257.1" font-family="Roboto" font-size="12.00">INTEGER (PK)</text>
          <polygon fill="#bbdefb" stroke="none" points="318.88,-225 318.88,-248.25 422.38,-248.25 422.38,-225 318.88,-225"/>
          <polygon fill="none" stroke="black" points="318.88,-225 318.88,-248.25 422.38,-248.25 422.38,-225 318.88,-225"/>
          <text text-anchor="start" x="354.5" y="-233.85" font-family="Roboto" font-size="12.00">name</text>
          <polygon fill="#bbdefb" stroke="none" points="422.38,-225 422.38,-248.25 519.88,-248.25 519.88,-225 422.38,-225"/>
          <polygon fill="none" stroke="black" points="422.38,-225 422.38,-248.25 519.88,-248.25 519.88,-225 422.38,-225"/>
          <text text-anchor="start" x="425.38" y="-233.85" font-family="Roboto" font-size="12.00">VARCHAR(200) ()</text>
          <polygon fill="#bbdefb" stroke="none" points="318.88,-201.75 318.88,-225 422.38,-225 422.38,-201.75 318.88,-201.75"/>
          <polygon fill="none" stroke="black" points="318.88,-201.75 318.88,-225 422.38,-225 422.38,-201.75 318.88,-201.75"/>
          <text text-anchor="start" x="343.25" y="-210.6" font-family="Roboto" font-size="12.00">author_id</text>
          <polygon fill="#bbdefb" stroke="none" points="422.38,-201.75 422.38,-225 519.88,-225 519.88,-201.75 422.38,-201.75"/>
          <polygon fill="none" stroke="black" points="422.38,-201.75 422.38,-225 519.88,-225 519.88,-201.75 422.38,-201.75"/>
          <text text-anchor="start" x="441.12" y="-210.6" font-family="Roboto" font-size="12.00">INTEGER ()</text>
          <polygon fill="#bbdefb" stroke="none" points="318.88,-178.5 318.88,-201.75 422.38,-201.75 422.38,-178.5 318.88,-178.5"/>
          <polygon fill="none" stroke="black" points="318.88,-178.5 318.88,-201.75 422.38,-201.75 422.38,-178.5 318.88,-178.5"/>
          <text text-anchor="start" x="338.38" y="-187.35" font-family="Roboto" font-size="12.00">description</text>
          <polygon fill="#bbdefb" stroke="none" points="422.38,-178.5 422.38,-201.75 519.88,-201.75 519.88,-178.5 422.38,-178.5"/>
          <polygon fill="none" stroke="black" points="422.38,-178.5 422.38,-201.75 519.88,-201.75 519.88,-178.5 422.38,-178.5"/>
          <text text-anchor="start" x="439.25" y="-187.35" font-family="Roboto" font-size="12.00">VARCHAR ()</text>
          <polygon fill="#bbdefb" stroke="none" points="318.88,-155.25 318.88,-178.5 422.38,-178.5 422.38,-155.25 318.88,-155.25"/>
          <polygon fill="none" stroke="black" points="318.88,-155.25 318.88,-178.5 422.38,-178.5 422.38,-155.25 318.88,-155.25"/>
          <text text-anchor="start" x="321.88" y="-164.1" font-family="Roboto" font-size="12.00">max_participants</text>
          <polygon fill="#bbdefb" stroke="none" points="422.38,-155.25 422.38,-178.5 519.88,-178.5 519.88,-155.25 422.38,-155.25"/>
          <polygon fill="none" stroke="black" points="422.38,-155.25 422.38,-178.5 519.88,-178.5 519.88,-155.25 422.38,-155.25"/>
          <text text-anchor="start" x="439.25" y="-164.1" font-family="Roboto" font-size="12.00">VARCHAR ()</text>
        </a>
      </g>
    </g>
    <!-- User&#45;&gt;Project -->
    <g id="edge3" class="edge-hover edge-from-None edge-to-None">
      <title>User-&gt;Project</title>
      <g id="a_edge3">
        <a xlink:title="Relation between User and Project">
          <path fill="none" stroke="#1e88e5" stroke-dasharray="5,2" d="M246.92,-523.62C237.1,-507.6 228.62,-490.6 222.88,-473.25 205.51,-420.83 196.12,-397.31 222.88,-349 240.55,-317.09 270.33,-292.36 301.44,-273.72"/>
          <polygon fill="#1e88e5" stroke="#1e88e5" points="302.9,-276.92 309.81,-268.89 299.4,-270.86 302.9,-276.92"/>
        </a>
      </g>
      <text text-anchor="middle" x="250.62" y="-408.75" font-family="Roboto" font-size="10.00">projects_led</text>
    </g>
    <!-- ProjectParticipation -->
    <g id="node5" class="table-hover">
      <title>ProjectParticipation</title>
      <g id="a_node5">
        <a xlink:href="http://ProjectParticipation_details.html" xlink:title="&lt;TABLE&gt;">
          <polygon fill="#3f51b5" stroke="none" points="469.88,-73.75 469.88,-97 634.88,-97 634.88,-73.75 469.88,-73.75"/>
          <polygon fill="none" stroke="black" points="469.88,-73.75 469.88,-97 634.88,-97 634.88,-73.75 469.88,-73.75"/>
          <text text-anchor="start" x="496.12" y="-82.6" font-family="Roboto" font-size="12.00" fill="white">ProjectParticipation</text>
          <polygon fill="#bbdefb" stroke="none" points="469.88,-50.5 469.88,-73.75 553.88,-73.75 553.88,-50.5 469.88,-50.5"/>
          <polygon fill="none" stroke="black" points="469.88,-50.5 469.88,-73.75 553.88,-73.75 553.88,-50.5 469.88,-50.5"/>
          <text text-anchor="start" x="506.62" y="-59.35" font-family="Roboto" font-size="12.00">id</text>
          <polygon fill="#bbdefb" stroke="none" points="553.88,-50.5 553.88,-73.75 634.88,-73.75 634.88,-50.5 553.88,-50.5"/>
          <polygon fill="none" stroke="black" points="553.88,-50.5 553.88,-73.75 634.88,-73.75 634.88,-50.5 553.88,-50.5"/>
          <text text-anchor="start" x="556.88" y="-59.35" font-family="Roboto" font-size="12.00">INTEGER (PK)</text>
          <polygon fill="#bbdefb" stroke="none" points="469.88,-27.25 469.88,-50.5 553.88,-50.5 553.88,-27.25 469.88,-27.25"/>
          <polygon fill="none" stroke="black" points="469.88,-27.25 469.88,-50.5 553.88,-50.5 553.88,-27.25 469.88,-27.25"/>
          <text text-anchor="start" x="484.12" y="-36.1" font-family="Roboto" font-size="12.00">project_id</text>
          <polygon fill="#bbdefb" stroke="none" points="553.88,-27.25 553.88,-50.5 634.88,-50.5 634.88,-27.25 553.88,-27.25"/>
          <polygon fill="none" stroke="black" points="553.88,-27.25 553.88,-50.5 634.88,-50.5 634.88,-27.25 553.88,-27.25"/>
          <text text-anchor="start" x="564.38" y="-36.1" font-family="Roboto" font-size="12.00">INTEGER ()</text>
          <polygon fill="#bbdefb" stroke="none" points="469.88,-4 469.88,-27.25 553.88,-27.25 553.88,-4 469.88,-4"/>
          <polygon fill="none" stroke="black" points="469.88,-4 469.88,-27.25 553.88,-27.25 553.88,-4 469.88,-4"/>
          <text text-anchor="start" x="472.88" y="-12.85" font-family="Roboto" font-size="12.00">participant_id</text>
          <polygon fill="#bbdefb" stroke="none" points="553.88,-4 553.88,-27.25 634.88,-27.25 634.88,-4 553.88,-4"/>
          <polygon fill="none" stroke="black" points="553.88,-4 553.88,-27.25 634.88,-27.25 634.88,-4 553.88,-4"/>
          <text text-anchor="start" x="564.38" y="-12.85" font-family="Roboto" font-size="12.00">INTEGER ()</text>
        </a>
      </g>
    </g>
    <!-- User&#45;&gt;ProjectParticipation -->
    <g id="edge4" class="edge-hover edge-from-None edge-to-None">
      <title>User-&gt;ProjectParticipation</title>
      <g id="a_edge4">
        <a xlink:title="Relation between User and ProjectParticipation">
          <path fill="none" stroke="#1e88e5" stroke-dasharray="5,2" d="M468.64,-568.9C504.99,-544.46 540.14,-512.67 560.38,-473.25 591.81,-412 572.76,-213.25 560.42,-111.99"/>
          <polygon fill="#1e88e5" stroke="#1e88e5" points="563.92,-111.73 559.21,-102.23 556.97,-112.59 563.92,-111.73"/>
        </a>
      </g>
      <text text-anchor="middle" x="602.1" y="-321.5" font-family="Roboto" font-size="10.00">projects_in</text>
    </g>
    <!-- Resume&#45;&gt;User -->
    <g id="edge5" class="edge-hover edge-from-None edge-to-None">
      <title>Resume-&gt;User</title>
      <g id="a_edge5">
        <a xlink:title="Relation between Resume and User">
          <path fill="none" stroke="#1e88e5" stroke-dasharray="5,2" d="M140.1,-472.93C150.79,-484.11 162.18,-495.42 173.38,-505.5 182.96,-514.13 193.1,-522.78 203.47,-531.29"/>
          <polygon fill="#1e88e5" stroke="#1e88e5" points="201.07,-533.85 211.04,-537.44 205.48,-528.42 201.07,-533.85"/>
        </a>
      </g>
      <text text-anchor="middle" x="183.88" y="-496" font-family="Roboto" font-size="10.00">user</text>
    </g>
    <!-- Response&#45;&gt;User -->
    <g id="edge6" class="edge-hover edge-from-None edge-to-None">
      <title>Response-&gt;User</title>
      <g id="a_edge6">
        <a xlink:title="Relation between Response and User">
          <path fill="none" stroke="#1e88e5" stroke-dasharray="5,2" d="M423.68,-473.2C418.73,-484.03 413.5,-495.14 408.38,-505.5 407.03,-508.22 405.66,-510.97 404.26,-513.73"/>
          <polygon fill="#1e88e5" stroke="#1e88e5" points="401.24,-511.96 399.82,-522.46 407.48,-515.13 401.24,-511.96"/>
        </a>
      </g>
      <text text-anchor="middle" x="441.45" y="-496" font-family="Roboto" font-size="10.00">respondent</text>
    </g>
    <!-- Response&#45;&gt;Project -->
    <g id="edge7" class="edge-hover edge-from-None edge-to-None">
      <title>Response-&gt;Project</title>
      <g id="a_edge7">
        <a xlink:title="Relation between Response and Project">
          <path fill="none" stroke="#1e88e5" stroke-dasharray="5,2" d="M414.13,-349.1C411.71,-343.13 409.64,-337.04 408.12,-331 406.42,-324.17 405.47,-317.03 405.1,-309.82"/>
          <polygon fill="#1e88e5" stroke="#1e88e5" points="408.61,-309.95 404.99,-299.99 401.61,-310.03 408.61,-309.95"/>
        </a>
      </g>
      <text text-anchor="middle" x="424.25" y="-321.5" font-family="Roboto" font-size="10.00">project</text>
    </g>
    <!-- Project&#45;&gt;User -->
    <g id="edge8" class="edge-hover edge-from-None edge-to-None">
      <title>Project-&gt;User</title>
      <g id="a_edge8">
        <a xlink:title="Relation between Project and User">
          <path fill="none" stroke="#1e88e5" stroke-dasharray="5,2" d="M339.15,-298.43C326.77,-313.8 315.81,-330.91 308.88,-349 289.16,-400.45 292.67,-460.77 302.88,-512.4"/>
          <polygon fill="#1e88e5" stroke="#1e88e5" points="299.45,-513.06 304.92,-522.13 306.3,-511.63 299.45,-513.06"/>
        </a>
      </g>
      <text text-anchor="middle" x="324.62" y="-408.75" font-family="Roboto" font-size="10.00">author</text>
    </g>
    <!-- Project&#45;&gt;Response -->
    <g id="edge9" class="edge-hover edge-from-None edge-to-None">
      <title>Project-&gt;Response</title>
      <g id="a_edge9">
        <a xlink:title="Relation between Project and Response">
          <path fill="none" stroke="#1e88e5" stroke-dasharray="5,2" d="M437,-298.66C438.23,-304.76 439.38,-310.85 440.38,-316.75 441.53,-323.61 442.58,-330.77 443.52,-337.95"/>
          <polygon fill="#1e88e5" stroke="#1e88e5" points="440.03,-338.21 444.74,-347.7 446.98,-337.35 440.03,-338.21"/>
        </a>
      </g>
      <text text-anchor="middle" x="465.97" y="-321.5" font-family="Roboto" font-size="10.00">responses</text>
    </g>
    <!-- Project&#45;&gt;ProjectParticipation -->
    <g id="edge10" class="edge-hover edge-from-None edge-to-None">
      <title>Project-&gt;ProjectParticipation</title>
      <g id="a_edge10">
        <a xlink:title="Relation between Project and ProjectParticipation">
          <path fill="none" stroke="#1e88e5" stroke-dasharray="5,2" d="M435.87,-151.42C440.41,-139.93 446.14,-128.66 453.38,-119 456.03,-115.45 458.94,-112.02 462.03,-108.72"/>
          <polygon fill="#1e88e5" stroke="#1e88e5" points="464.33,-111.37 468.97,-101.84 459.4,-106.39 464.33,-111.37"/>
        </a>
      </g>
      <text text-anchor="middle" x="480.38" y="-123.75" font-family="Roboto" font-size="10.00">participants</text>
    </g>
    <!-- ProjectParticipation&#45;&gt;User -->
    <g id="edge12" class="edge-hover edge-from-None edge-to-None">
      <title>ProjectParticipation-&gt;User</title>
      <g id="a_edge12">
        <a xlink:title="Relation between ProjectParticipation and User">
          <path fill="none" stroke="#1e88e5" stroke-dasharray="5,2" d="M571.84,-100.87C591.37,-153.4 620.01,-239.44 630.38,-316.75 640.03,-388.73 616.88,-408.81 583.38,-473.25 560.71,-516.84 519.99,-550.14 478.27,-574.67"/>
          <polygon fill="#1e88e5" stroke="#1e88e5" points="476.78,-571.49 469.83,-579.49 480.25,-577.57 476.78,-571.49"/>
        </a>
      </g>
      <text text-anchor="middle" x="656.67" y="-321.5" font-family="Roboto" font-size="10.00">participant</text>
    </g>
    <!-- ProjectParticipation&#45;&gt;Project -->
    <g id="edge11" class="edge-hover edge-from-None edge-to-None">
      <title>ProjectParticipation-&gt;Project</title>
      <g id="a_edge11">
        <a xlink:title="Relation between ProjectParticipation and Project">
          <path fill="none" stroke="#1e88e5" stroke-dasharray="5,2" d="M528.02,-100.8C521.82,-111.83 514.79,-123.22 507.38,-133.25 505.05,-136.39 502.63,-139.53 500.13,-142.66"/>
          <polygon fill="#1e88e5" stroke="#1e88e5" points="497.53,-140.31 493.87,-150.26 502.93,-144.77 497.53,-140.31"/>
        </a>
      </g>
      <text text-anchor="middle" x="532.16" y="-123.75" font-family="Roboto" font-size="10.00">project</text>
    </g>
  </g>
</svg>
